<?xml version="1.0" standalone="no"?>
<!DOCTYPE svg PUBLIC "-//W3C//DTD SVG 20010904//EN"
 "http://www.w3.org/TR/2001/REC-SVG-20010904/DTD/svg10.dtd">
<svg version="1.0" xmlns="http://www.w3.org/2000/svg"
 width="300.000000pt" height="300.000000pt" viewBox="0 0 300.000000 300.000000"
 preserveAspectRatio="xMidYMid meet">
<metadata>
Created by potrace 1.16, written by Peter Selinger 2001-2019
</metadata>
<g transform="translate(0.000000,300.000000) scale(0.100000,-0.100000)"
fill="#000000" stroke="none">
<path d="M1227 2979 c-431 -75 -822 -357 -1041 -748 -70 -125 -121 -254 -154
-394 -25 -104 -27 -128 -27 -337 0 -209 2 -233 27 -337 140 -589 618 -1043
1203 -1143 157 -27 372 -27 527 -1 301 52 572 195 798 421 293 292 440 648
440 1060 0 316 -85 593 -264 855 -80 118 -265 303 -381 382 -185 125 -390 209
-593 244 -152 25 -384 25 -535 -2z m94 -170 c11 -5 29 -24 39 -41 l19 -31 133
-3 c200 -3 318 -32 318 -77 0 -4 -12 -7 -27 -5 -27 3 -28 1 -42 -74 -8 -43
-17 -78 -21 -78 -4 0 -15 8 -24 19 -16 17 -16 24 -2 82 8 35 13 65 11 67 -1 2
-18 5 -38 9 l-35 5 -7 -81 c-4 -44 -10 -81 -14 -81 -16 1 -41 29 -41 46 0 14
-3 15 -12 6 -22 -22 -90 -9 -110 22 -15 21 -8 55 14 70 28 20 55 20 91 2 25
-14 27 -13 27 5 0 18 -8 19 -100 19 -114 0 -105 10 -91 -102 4 -32 3 -58 -2
-58 -22 0 -47 23 -47 44 0 22 -3 23 -47 19 -54 -6 -76 -20 -53 -33 8 -5 24
-15 35 -24 18 -13 18 -15 3 -21 -19 -8 -128 61 -128 81 0 8 11 14 25 14 18 0
25 5 25 18 0 28 -8 31 -42 20 -24 -8 -33 -7 -46 5 -9 9 -13 19 -10 22 6 6 145
40 202 50 l38 6 -23 25 c-12 13 -31 24 -41 24 -10 0 -18 2 -18 4 0 2 -3 11 -6
20 -7 19 17 22 47 5z m762 -221 c45 -24 111 -64 146 -91 49 -37 66 -45 72 -35
12 18 11 42 -2 55 -6 6 -8 21 -4 33 6 18 9 19 22 8 12 -10 14 -26 10 -72 l-5
-60 78 -82 c43 -46 99 -114 124 -153 94 -140 193 -391 170 -428 -14 -23 -29
-21 -32 5 -2 12 -5 22 -6 22 -1 0 -36 -11 -76 -25 -40 -14 -75 -23 -78 -20 -2
2 -2 15 1 28 5 18 20 27 69 43 59 19 63 23 61 49 -3 43 -15 48 -69 24 -97 -42
-94 -41 -94 -13 0 21 10 30 65 55 l65 29 -36 72 c-20 40 -43 83 -51 95 l-15
22 -56 -38 c-86 -57 -82 -56 -82 -23 0 25 9 36 55 67 l54 38 -22 31 c-12 17
-52 63 -90 101 l-67 70 -55 -60 c-45 -49 -57 -57 -65 -45 -16 24 -12 33 35 87
l45 51 -29 21 c-16 12 -31 21 -34 21 -2 0 -24 -29 -47 -65 -35 -54 -45 -63
-57 -53 -9 7 -13 22 -9 39 4 23 1 28 -20 33 -40 10 -64 42 -64 84 0 38 0 38
36 34 43 -5 40 9 -7 33 -17 9 -29 24 -29 35 0 11 3 20 6 20 3 0 43 -19 87 -42z
m-1125 -1 l23 -13 -25 -14 -26 -13 41 -74 40 -73 -29 0 c-17 0 -32 6 -35 13
-3 8 -11 6 -28 -9 -35 -32 -63 -37 -104 -20 l-37 16 21 28 c11 16 18 32 14 35
-5 6 -24 -6 -82 -52 l-25 -19 57 -59 c31 -33 54 -63 50 -66 -17 -18 -51 -3
-95 40 l-48 47 -24 -23 c-23 -21 -24 -26 -11 -44 12 -17 11 -26 -4 -68 -16
-40 -17 -50 -5 -60 17 -14 60 26 70 65 4 17 13 26 25 26 21 0 25 -21 8 -51
-10 -19 -8 -20 37 -18 58 4 71 -16 16 -25 -36 -5 -40 -9 -48 -48 -6 -30 -15
-44 -28 -46 -17 -4 -18 0 -13 43 6 42 5 46 -11 40 -9 -4 -26 -10 -37 -12 -11
-2 -28 -18 -37 -34 -9 -16 -33 -36 -52 -46 -34 -16 -38 -16 -71 0 l-35 17 -15
-30 -15 -29 77 -36 78 -36 -25 -19 c-24 -18 -25 -18 -82 11 -31 16 -60 29 -63
29 -5 0 -37 -72 -33 -75 2 0 16 -6 31 -13 16 -7 31 -22 34 -33 3 -11 8 -18 12
-17 46 25 62 30 68 24 10 -9 -15 -30 -71 -59 -57 -30 -70 -27 -61 14 6 24 3
29 -13 29 -14 0 -21 -9 -25 -29 -6 -28 -42 -59 -54 -47 -10 9 54 196 97 284
57 118 117 208 195 290 62 66 65 71 46 81 -30 16 -48 13 -65 -11 -14 -20 -14
-24 0 -39 20 -23 3 -32 -24 -13 -22 15 -29 49 -14 70 19 30 53 36 98 19 l43
-16 64 50 c58 46 185 130 197 130 3 0 15 -5 28 -12z m673 -182 c149 -22 262
-66 382 -147 193 -131 334 -341 384 -573 20 -91 20 -279 0 -370 -71 -327 -308
-589 -622 -688 -225 -71 -459 -54 -670 48 -251 121 -430 342 -497 612 -30 123
-30 303 0 426 90 363 384 635 751 692 114 17 158 18 272 0z m923 -1102 c-6
-31 -4 -35 12 -31 11 2 20 13 22 26 3 17 9 22 25 20 17 -2 22 -10 22 -33 0
-43 33 -48 41 -5 6 25 10 29 28 24 11 -4 22 -7 23 -8 4 -3 -18 -91 -25 -98 -6
-6 -197 34 -207 44 -4 3 7 56 20 95 2 6 13 9 25 6 17 -5 20 -10 14 -40z
m-2064 13 c0 -18 -11 -32 -42 -51 -24 -15 -34 -24 -23 -21 69 18 75 18 81 2 4
-9 4 -20 1 -23 -4 -3 -50 -16 -104 -29 -73 -17 -100 -20 -105 -11 -14 22 -3
41 37 65 37 22 38 23 10 17 -16 -3 -38 -8 -47 -11 -12 -4 -18 0 -18 10 0 9 -1
19 -2 24 -2 7 158 49 195 51 12 1 17 -6 17 -23z m2193 -176 c4 -4 5 -15 1 -24
-7 -19 -17 -18 -76 8 -51 22 -48 14 7 -18 29 -17 45 -34 45 -46 0 -22 -14 -24
-75 -10 -57 13 -55 5 4 -15 28 -9 51 -22 51 -28 -1 -34 -17 -34 -110 2 -90 35
-95 38 -93 65 1 16 4 31 7 33 3 3 30 1 60 -4 31 -6 56 -9 56 -7 0 1 -20 14
-45 28 -48 29 -50 32 -35 70 l9 25 93 -36 c51 -20 97 -39 101 -43z m-2145 5
c11 -23 9 -27 -31 -52 -23 -14 -66 -41 -95 -60 l-53 -33 -8 22 c-6 17 -4 26
10 36 25 17 14 44 -16 36 -17 -4 -24 0 -28 17 -4 13 -5 24 -4 25 3 3 171 32
193 33 13 1 25 -8 32 -24z m1901 -124 c10 -6 11 -13 2 -29 -6 -11 -11 -25 -11
-31 0 -19 29 -12 40 9 12 22 18 24 40 10 13 -8 13 -13 2 -30 -10 -17 -10 -25
-1 -36 16 -20 24 -18 37 11 13 27 19 30 42 15 13 -8 12 -16 -9 -55 -13 -25
-28 -45 -33 -45 -10 0 -145 73 -170 92 -16 12 -15 16 9 56 26 44 30 47 52 33z
m2 -163 c43 -34 79 -64 79 -68 0 -4 -7 -13 -15 -20 -12 -10 -21 -8 -50 14 -29
22 -36 24 -41 12 -3 -9 7 -26 26 -43 28 -25 30 -30 17 -47 -13 -18 -18 -16
-93 44 -43 34 -82 65 -86 69 -4 3 0 14 7 25 13 18 15 17 45 -4 24 -17 34 -20
43 -11 9 9 4 17 -17 35 -29 22 -32 56 -6 56 6 0 47 -28 91 -62z m-1726 -11 c8
-12 15 -31 15 -43 0 -36 -110 -124 -155 -124 -25 0 -55 38 -55 69 0 22 11 39
43 66 74 65 122 75 152 32z m1579 -72 c29 -22 13 -48 -24 -40 -44 10 -39 -12
15 -65 44 -43 71 -48 46 -8 -11 17 -10 23 4 37 15 15 18 14 36 -8 31 -38 19
-84 -27 -102 -34 -12 -74 11 -120 70 -40 51 -42 76 -12 108 24 26 54 29 82 8z
m-1505 -9 c10 -11 8 -24 -10 -58 l-21 -43 34 33 c31 29 36 31 47 18 11 -13 3
-27 -54 -91 -69 -77 -84 -85 -104 -61 -10 11 -8 24 10 58 l21 43 -34 -33 c-30
-29 -36 -31 -47 -18 -11 13 -2 27 55 91 38 41 74 75 80 75 6 0 17 -6 23 -14z
m1391 -92 c11 -12 10 -18 -3 -31 -13 -13 -19 -14 -31 -4 -9 7 -16 8 -20 2 -9
-14 6 -21 56 -25 28 -3 49 -12 60 -26 25 -31 23 -75 -4 -94 -30 -22 -54 -20
-79 5 -20 20 -20 21 -3 34 13 9 22 10 36 2 19 -12 34 -4 23 12 -3 6 -24 11
-46 11 -70 0 -113 67 -72 112 20 22 66 24 83 2z m-1257 -18 c17 -13 16 -19
-25 -115 -24 -55 -46 -101 -49 -101 -3 0 -14 6 -24 14 -15 11 -17 17 -7 28 18
23 -6 43 -28 23 -14 -13 -19 -13 -36 0 -18 13 -15 18 56 89 41 42 79 76 85 76
5 0 18 -7 28 -14z m1071 -72 c10 -25 7 -30 -20 -43 -21 -9 -24 -14 -14 -26 9
-11 17 -12 36 -3 20 10 27 9 35 -3 13 -21 11 -25 -16 -37 -22 -10 -24 -14 -13
-31 11 -18 14 -18 40 -5 25 13 28 12 37 -5 12 -21 6 -28 -48 -56 -33 -17 -35
-17 -48 1 -29 40 -94 166 -88 172 8 8 79 50 86 51 4 1 10 -6 13 -15z m-107
-81 c14 -21 14 -26 2 -34 -21 -13 -36 -11 -43 6 -11 30 -29 16 -23 -18 13 -82
57 -137 57 -72 0 26 29 42 42 23 16 -26 8 -67 -16 -83 -56 -37 -100 -4 -127
96 -16 59 -7 95 28 107 37 12 61 4 80 -25z m-669 11 c14 -10 22 -25 22 -45 0
-37 -27 -39 -41 -2 -7 19 -13 23 -21 15 -8 -8 -4 -20 11 -46 29 -46 25 -92
-10 -119 -24 -17 -30 -18 -55 -6 -23 11 -30 22 -32 52 -3 35 -1 38 20 35 15
-2 23 -10 23 -22 0 -11 6 -21 13 -24 19 -6 14 27 -9 65 -43 70 15 142 79 97z
m143 -30 c12 -3 15 -11 12 -25 -5 -16 -12 -20 -34 -17 -16 3 -29 3 -29 2 0 -1
-3 -9 -6 -18 -4 -11 0 -16 12 -16 29 0 45 -15 38 -33 -4 -11 -17 -17 -35 -17
-41 0 -41 -35 0 -43 24 -5 28 -10 24 -28 -5 -19 -10 -21 -57 -14 -28 3 -52 8
-54 9 -3 3 26 179 34 204 3 12 41 11 95 -4z m308 -21 c0 -16 -6 -66 -12 -113
-12 -81 -13 -85 -39 -88 -26 -3 -28 0 -58 98 -17 55 -28 105 -25 110 3 6 15
10 25 10 14 0 21 -12 31 -55 14 -63 29 -56 29 12 0 40 5 46 43 52 4 0 7 -11 6
-26z m-191 10 c29 -7 45 -45 32 -77 -5 -13 -5 -49 -1 -80 l8 -56 -29 0 c-26 0
-28 3 -28 40 0 30 -4 40 -16 40 -8 0 -12 -5 -9 -10 4 -6 4 -24 0 -40 -5 -24
-12 -30 -32 -30 -19 0 -24 4 -19 16 3 9 6 58 6 110 l0 94 33 0 c17 0 42 -3 55
-7z"/>
<path d="M1353 2299 c-117 -20 -264 -87 -361 -167 l-44 -35 108 -108 c101
-101 111 -109 147 -109 56 0 107 -52 107 -107 0 -30 7 -45 28 -65 l27 -25 43
19 c39 18 42 21 42 59 0 26 -5 42 -15 46 -22 8 -45 56 -45 92 0 19 11 43 30
64 l30 35 0 156 c0 178 10 163 -97 145z"/>
<path d="M1550 2152 c0 -145 2 -160 20 -177 45 -41 46 -111 0 -160 -10 -11
-20 -37 -22 -57 -4 -36 -2 -37 40 -54 l44 -16 39 38 c32 31 39 45 39 77 0 55
52 107 107 107 35 0 46 8 133 96 l95 95 -35 30 c-94 81 -275 159 -402 174
l-58 6 0 -159z"/>
<path d="M858 1998 c-95 -125 -168 -316 -168 -438 l0 -30 124 0 124 0 30 30
c24 23 39 30 71 30 31 0 49 -7 74 -30 30 -26 42 -30 93 -30 l59 0 18 42 17 42
-27 28 c-21 22 -36 28 -68 28 -22 0 -51 7 -63 16 -31 22 -55 72 -49 104 5 23
-7 40 -102 134 l-108 107 -25 -33z"/>
<path d="M2018 1933 c-87 -87 -98 -102 -98 -133 0 -20 -7 -46 -16 -59 -20 -27
-78 -54 -103 -46 -11 3 -31 -9 -59 -38 l-42 -43 16 -42 c16 -39 20 -42 55 -42
27 0 45 7 63 25 45 45 100 45 154 0 29 -24 35 -25 177 -25 l148 0 -7 60 c-4
32 -13 85 -21 117 -18 69 -104 245 -142 291 l-28 32 -97 -97z"/>
<path d="M690 1425 c0 -40 33 -170 60 -235 30 -72 106 -196 135 -220 14 -12
29 0 111 81 77 77 94 98 89 116 -8 32 18 88 51 109 15 10 43 17 64 17 30 -2
43 5 69 31 l31 32 -17 42 -16 42 -59 0 c-53 0 -63 -3 -90 -30 -24 -24 -38 -30
-73 -30 -35 0 -52 6 -78 30 -34 30 -35 30 -156 30 -102 0 -121 -2 -121 -15z"/>
<path d="M1717 1405 c-23 -48 -22 -57 11 -88 18 -18 39 -27 59 -27 72 0 125
-52 121 -118 -2 -29 9 -43 92 -128 l95 -95 38 43 c74 84 150 264 172 406 l7
42 -151 0 c-140 0 -151 -1 -161 -20 -6 -11 -25 -27 -42 -36 -41 -21 -90 -11
-125 26 -21 22 -37 30 -64 30 -31 0 -38 -5 -52 -35z"/>
<path d="M1336 1251 c-27 -27 -36 -45 -36 -70 0 -46 -55 -101 -102 -101 -29 0
-46 -13 -132 -99 l-98 -98 49 -35 c109 -79 255 -139 376 -153 l57 -6 0 127 c0
126 0 128 -27 157 -22 22 -28 38 -28 72 0 34 6 50 28 72 23 25 27 38 27 85 0
55 0 55 -39 70 l-39 16 -36 -37z"/>
<path d="M1588 1272 c-38 -15 -38 -15 -38 -70 0 -47 4 -60 28 -85 21 -22 27
-38 27 -72 0 -34 -6 -50 -27 -72 -28 -29 -28 -31 -28 -157 l0 -127 58 6 c120
14 266 74 375 153 l49 35 -98 98 c-80 80 -102 97 -120 93 -56 -14 -133 62
-122 119 4 20 -3 33 -31 60 -36 34 -36 34 -73 19z"/>
</g>
</svg>
